<?xml version="1.0" encoding="utf-8"?>
<!-- Generator: Adobe Illustrator 22.0.0, SVG Export Plug-In . SVG Version: 6.00 Build 0)  -->
<svg version="1.1" id="OBJECTS" xmlns="http://www.w3.org/2000/svg" xmlns:xlink="http://www.w3.org/1999/xlink" x="0px" y="0px"
	 viewBox="0 0 676 186" style="enable-background:new 0 0 676 186;" xml:space="preserve">
<style type="text/css">
	.st0{fill:#FFFFFF;}
	.st1{fill:#FFFFFF;stroke:#FFFFFF;stroke-width:3;stroke-miterlimit:10;}
</style>
<g>
	<path class="st0" d="M92.4,174c-0.1,0-0.2,0-0.3,0c0-0.1,0-0.1-0.1-0.2c-0.3-0.3-0.7-0.6-1-1c-13.7-13.7-27.4-27.4-41.1-41.1
		c-7.4-7.4-14.8-14.8-22.2-22.2c-4-4-8-8-12-12c-0.9-0.9-1.7-1.8-2.6-2.6c0,0-0.1,0-0.2,0c0-0.2,0-0.3,0-0.5c0.1,0,0.2,0,0.3-0.1
		c0.3-0.3,0.5-0.6,0.8-0.9c2-2,4.1-4.1,6.1-6.1c6.8-6.8,13.6-13.5,20.3-20.3c8.4-8.4,16.8-16.8,25.2-25.2c7-7,14-14,21-21.1
		c1.8-1.8,3.5-3.6,5.3-5.3c0.4-0.4,0.9-0.8,1.3-1.3c0.2,0,0.4,0,0.6,0c0.2,0.2,0.4,0.4,0.6,0.6c5.3,5.3,10.6,10.6,15.9,16
		c6.9,7,13.8,14,20.7,20.9c2.9,2.9,5.9,5.9,8.8,8.8c0.2,0.2,0.3,0.3,0.5,0.5c0.3,0.4,0.3,0.7,0,1.1c-0.2,0.2-0.4,0.4-0.6,0.7
		c-3,3-5.9,5.9-8.9,8.9c-5.9,5.9-11.8,11.8-17.7,17.7c-3.9,3.9-7.7,7.7-11.6,11.6c-2.6,2.6-5.3,5.3-7.9,7.9
		c-0.2,0.2-0.3,0.3-0.5,0.5c-0.3,0.2-0.6,0.2-0.8,0c-0.2-0.1-0.3-0.3-0.4-0.4c-4.5-4.5-8.9-8.9-13.4-13.4c-0.2-0.2-0.3-0.3-0.5-0.5
		s-0.2-0.4,0-0.7c0.2-0.2,0.4-0.5,0.6-0.7c5.4-5.4,10.8-10.8,16.2-16.2c0.7-0.7,1.4-1.4,2.1-2.1c4.4-4.4,8.7-8.7,13.1-13.1
		c0.1-0.1,0.3-0.2,0.4-0.4c0.2-0.3,0.2-0.6,0-0.9c-0.2-0.2-0.3-0.4-0.5-0.6c-1.9-1.9-3.8-3.8-5.7-5.7c-3.2-3.2-6.4-6.4-9.6-9.6
		c-0.2-0.2-0.4-0.4-0.6-0.6c-0.3-0.2-0.5-0.2-0.8,0c-0.2,0.1-0.4,0.3-0.6,0.5c-1.1,1.1-2.3,2.3-3.4,3.4C82,55.6,74.7,62.8,67.5,70.1
		C59.8,77.8,52,85.6,44.3,93.3c-0.2,0.2-0.4,0.4-0.5,0.5c-0.3,0.4-0.4,0.7,0,1.1c0.2,0.2,0.4,0.4,0.6,0.6
		c5.9,5.9,11.9,11.9,17.8,17.8c8.2,8.2,16.5,16.5,24.7,24.7c1.6,1.6,3.1,3.1,4.7,4.7c0.2,0.2,0.4,0.4,0.5,0.5c0.4,0.3,0.6,0.3,0.9,0
		c0.2-0.2,0.4-0.4,0.6-0.6c8.4-8.4,16.7-16.8,25.1-25.1c12.8-12.8,25.6-25.6,38.4-38.4c0.2-0.2,0.4-0.4,0.6-0.5c0.4-0.3,0.6-0.3,1,0
		c0.2,0.2,0.4,0.4,0.6,0.6c4.2,4.2,8.5,8.5,12.7,12.7c0.4,0.4,0.7,0.7,1,1.2c0,0.1,0,0.1,0,0.2c-0.2,0.4-0.5,0.8-0.9,1.1
		c-8,8-16,16-24,24c-5.8,5.8-11.7,11.7-17.5,17.5c-11.4,11.4-22.8,22.9-34.3,34.3C94.8,171.7,93.6,172.8,92.4,174z"/>
</g>
<g>
	<path class="st1" d="M223.9,121.1V67.2h42.4v6.2h-35.7v15.8h21.6v6.2h-21.6v19.5h37.9v6.2L223.9,121.1L223.9,121.1z"/>
	<path class="st1" d="M284.8,121.1V79.5h25.6c4.2,0,7.4,0.9,9.6,2.6s3.3,4.3,3.3,7.7c0,1.7-0.3,3.2-1,4.5s-1.7,2.4-3,3.2
		c2.3,1.3,4.1,2.9,5.2,4.8c1.2,1.9,1.8,4,1.8,6.3c0,3.9-1.3,6.9-3.9,9.2c-2.6,2.2-6.2,3.3-10.7,3.3H284.8L284.8,121.1z M310.2,85.5
		h-18.9v9.8h19c2.1,0,3.7-0.4,4.7-1.2c1.1-0.8,1.6-2.1,1.6-3.7s-0.5-2.8-1.6-3.7C314,85.9,312.4,85.5,310.2,85.5z M312.4,101.4
		h-21.1v13.7h21.1c2.3,0,4-0.6,5.3-1.8c1.3-1.2,1.9-2.9,1.9-5.1c0-2.1-0.6-3.8-1.9-5C316.5,102,314.7,101.4,312.4,101.4z"/>
	<path class="st1" d="M346.3,121.1V79.4h39.1v6.1h-32.6v10.4h21.4v6h-21.4v13.2h34.4v6H346.3z"/>
	<path class="st1" d="M410.3,102.8V121h-6.5V79.4h28.7c4.3,0,7.6,1,10,3.1s3.6,4.9,3.6,8.5c0,3-1,5.5-2.9,7.7s-4.4,3.5-7.4,4
		l11.6,18.3h-7.1l-11.8-18.2H410.3z M410.3,96.7h22.2c2.2,0,4-0.5,5.2-1.5s1.8-2.4,1.8-4.2s-0.6-3.2-1.8-4.2c-1.2-1-2.9-1.4-5.2-1.4
		h-22.2V96.7z"/>
	<path class="st1" d="M516,121.1V73.4h-22.7v-6.2h52.1v6.2h-22.7v47.7C522.7,121.1,516,121.1,516,121.1z"/>
	<path class="st1" d="M537.3,121.1l21.2-41.7h4.1l21.4,41.7h-7l-5.4-10.6h-22l-5.4,10.6C544.2,121.1,537.3,121.1,537.3,121.1z
		 M552.4,104.9h16.3l-8.1-16L552.4,104.9z"/>
	<path class="st1" d="M589.6,121.1l17.5-20.9l-17.3-20.8h7.9l13.4,16l13.4-16h8L615.1,100l17.6,21.1h-7.9l-13.7-16.3l-13.8,16.3
		C597.3,121.1,589.6,121.1,589.6,121.1z"/>
	<path class="st1" d="M648.1,121.1V79.3h6.6v41.8C654.7,121.1,648.1,121.1,648.1,121.1z"/>
</g>
</svg>
